<svg width="51" height="51" viewBox="0 0 51 51" fill="none" xmlns="http://www.w3.org/2000/svg">
<g clip-path="url(#clip0_880_5676)">
<rect width="51" height="51" rx="25.5" fill="#FE8C00"/>
<path d="M26.1164 18.2634C26.1164 18.3151 26.2068 18.445 26.4084 18.6015C26.5057 18.6771 26.6486 18.6547 26.7345 18.5831C26.8204 18.5115 26.8592 18.3683 26.8336 18.2489C26.808 18.1295 26.717 18.0383 26.5919 17.9913C26.4669 17.9443 26.3106 17.9443 26.1909 18.0089C26.0712 18.0735 25.9929 18.2026 25.9912 18.3208C25.9896 18.439 26.0669 18.5423 26.4596 18.6487" stroke="#FBDBB9" stroke-width="2" stroke-linecap="round" stroke-linejoin="round"/>
<path d="M9.63965 27.2729C10.2672 27.2348 12.426 26.7946 14.1617 25.8782C14.9768 25.4478 15.6247 24.5112 17.2732 22.2394C18.0477 21.1721 18.5782 20.3457 18.8075 19.7736C19.2196 18.7454 20.065 17.678 20.4885 17.0978C21.0103 16.3828 21.3401 15.8129 21.7644 15.4054C22.2427 14.9462 24.1924 13.8809 25.6993 13.2171C26.6886 12.7813 27.561 13.2448 28.1165 13.336C28.7753 13.4441 29.4668 13.7436 30.0528 14.0301C30.6544 14.3242 31.1549 14.8313 32.3072 15.9896C32.8654 16.6975 33.2031 17.1659 33.6471 17.4933C33.7521 17.5717 33.8425 17.6621 34.1313 17.9118" stroke="#FBDBB9" stroke-width="2" stroke-linecap="round" stroke-linejoin="round"/>
<path d="M34.0911 18.1069C34.2776 18.2485 34.9383 18.5857 35.5658 18.8276C36.2642 19.0967 37.0523 19.2252 37.6788 19.4017C37.8484 19.4494 38.0298 19.4991 38.0642 19.5515C38.3141 19.9319 37.0877 20.0736 36.5943 20.2819C36.0711 20.5029 35.4447 20.569 34.8979 20.7128C34.3512 20.8565 33.7875 20.9212 33.1629 21.0215C33.0082 21.0441 32.865 21.0699 32.7066 21.109C32.5481 21.1482 32.3788 21.1998 32.1255 21.2531" stroke="#FBDBB9" stroke-width="2" stroke-linecap="round" stroke-linejoin="round"/>
<path d="M32.1246 21.6436C32.0986 21.8768 32.0078 22.4603 31.9816 23.5199C31.9254 25.7967 31.804 26.7057 31.7117 27.4523C31.6272 28.1359 31.4616 28.8086 31.3214 29.387C31.1289 30.181 30.8979 30.7389 30.195 31.5082C29.5023 32.2665 28.7433 32.7855 28.1031 33.3294C27.5947 33.7614 26.8527 33.9102 25.5155 34.0575C23.971 34.2278 22.002 34.1251 20.3248 33.907C19.2721 33.7701 18.5792 33.634 17.5327 33.4814C16.0072 33.2591 15.005 32.7547 14.0387 32.3228C13.1021 31.9041 12.5087 31.5936 11.9814 31.2116C11.3843 30.779 11.1524 30.0824 10.6327 29.5087C10.1782 29.12 9.88809 28.7648 9.77 28.5286C9.70407 28.4096 9.62592 28.2924 9.54541 28.1716" stroke="#FBDBB9" stroke-width="2" stroke-linecap="round" stroke-linejoin="round"/>
<path d="M25.2889 35C25.2114 36.0591 25.1416 37.4224 25.1684 38.2159C25.1882 38.7998 26.2235 38.7557 26.8462 39.1365C27.5063 39.5039 28.0529 39.8953 28.6014 40.1889C28.7327 40.2611 28.8489 40.3257 28.9686 40.4705" stroke="#FBDBB9" stroke-width="2" stroke-linecap="round" stroke-linejoin="round"/>
<path d="M24.8281 38.9082C25.0312 39.0416 25.388 39.545 25.6684 40.0866C25.8051 40.3535 25.8846 40.6544 25.9106 41.0379C25.9237 41.2535 25.9366 41.5118 25.9499 41.7779" stroke="#FBDBB9" stroke-width="2" stroke-linecap="round" stroke-linejoin="round"/>
<path d="M21.7258 34.5C21.7082 36.2299 21.8563 38.7605 21.7258 39.7657C20.9615 40.4609 20.6328 40.7223 20.3901 40.8264C20.2645 40.8788 20.1342 40.9305 20 41.0228" stroke="#FBDBB9" stroke-width="2" stroke-linecap="round" stroke-linejoin="round"/>
<path d="M21.9565 40.1543C21.9565 40.206 21.9565 40.3799 21.9824 40.6677C22.0599 40.9373 22.1389 41.1995 22.1845 41.4598C22.2042 41.5908 22.2172 41.72 22.2305 41.853" stroke="#FBDBB9" stroke-width="2" stroke-linecap="round" stroke-linejoin="round"/>
<path d="M24.2261 22.9453C24.3212 23.1308 24.4348 24.4094 24.3039 25.2979C24.2164 25.8919 23.4242 26.373 22.904 26.7984C22.427 27.1885 21.8657 27.4617 21.2762 27.6341C20.7206 27.7967 20.0093 27.9151 19.1913 27.8727C18.5304 27.8384 17.5248 27.7601 16.4303 27.6294C15.4279 27.5098 14.8114 27.4213 14.2385 27.2176C14.0996 27.171 13.9693 27.1448 13.8565 27.0793C13.7438 27.0138 13.6526 26.9096 13.5586 26.6052" stroke="#FBDBB9" stroke-width="2" stroke-linecap="round" stroke-linejoin="round"/>
<path d="M28.4994 13.6414C28.2957 13.5335 27.7022 13.1988 27.1508 12.7945C25.8988 11.8765 25.4578 10.9289 25.2409 10.5488C25.053 10.2195 24.8355 9.75882 24.4984 9.27999C24.0755 8.67933 23.6576 8.31754 23.2827 7.9887C22.9975 7.73844 22.5226 7.92779 22.1481 8.01986C21.7897 8.10799 21.5217 8.41068 21.267 8.73776C20.9305 9.16993 20.8264 9.56287 20.7872 10.01C20.7691 10.2167 20.814 10.3938 20.897 10.5394C21.1555 10.7779 21.3889 10.8862 21.5594 10.9653C21.6474 11.0031 21.7382 11.0361 21.8568 11.0701" stroke="#FBDBB9" stroke-width="2" stroke-linecap="round" stroke-linejoin="round"/>
</g>
<defs>
<clipPath id="clip0_880_5676">
<rect width="51" height="51" rx="25.5" fill="white"/>
</clipPath>
</defs>
</svg>
